<?xml version="1.0" standalone="no"?>
<!DOCTYPE svg PUBLIC "-//W3C//DTD SVG 20010904//EN"
 "http://www.w3.org/TR/2001/REC-SVG-20010904/DTD/svg10.dtd">
<svg version="1.0" xmlns="http://www.w3.org/2000/svg"
 width="1629.000000pt" height="464.000000pt"  viewBox="0 0 1629.000000 464.000000"
 preserveAspectRatio="xMidYMid meet">
<metadata>
Created by potrace 1.16, written by Peter Selinger 2001-2019
</metadata>
<g transform="translate(0.000000,464.000000) scale(0.100000,-0.100000)"
fill="white" stroke="none">
<path d="M12532 3400 c-48 -30 -72 -75 -72 -140 0 -102 59 -160 165 -160 106
0 165 58 165 160 0 102 -59 160 -165 160 -42 0 -70 -6 -93 -20z"/>
<path d="M11413 3359 c-19 -19 -15 -88 7 -136 29 -65 48 -70 193 -50 136 19
322 34 557 45 147 7 155 8 152 27 -2 11 -14 31 -28 45 -23 24 -27 24 -246 32
-123 3 -284 14 -358 23 -213 26 -263 29 -277 14z"/>
<path d="M4935 2949 c-82 -3 -171 -10 -197 -14 l-48 -7 0 -668 0 -668 94 -7
c156 -12 470 -1 556 19 155 37 261 109 316 217 36 71 46 209 19 288 -23 70
-98 150 -174 186 l-59 28 36 19 c178 88 228 317 101 462 -109 124 -271 160
-644 145z m323 -252 c74 -40 97 -146 45 -208 -41 -48 -100 -70 -209 -76 l-94
-6 0 158 0 157 113 -4 c82 -3 121 -9 145 -21z m-26 -533 c91 -32 128 -80 128
-167 0 -123 -97 -187 -285 -187 l-75 0 0 191 0 191 97 -7 c53 -4 114 -13 135
-21z"/>
<path d="M6200 2944 c-147 -39 -267 -136 -310 -251 -31 -83 -25 -226 12 -298
54 -102 152 -173 351 -252 155 -61 207 -105 207 -175 0 -55 -26 -93 -84 -119
-84 -38 -278 -19 -410 40 -27 11 -51 19 -53 17 -7 -6 -63 -228 -63 -247 0 -20
82 -52 188 -74 109 -22 309 -20 406 5 145 37 252 117 304 228 24 51 27 68 27
172 0 112 -1 117 -34 178 -54 99 -136 159 -320 232 -136 54 -170 72 -206 110
-59 62 -28 149 65 180 57 19 219 8 295 -19 33 -12 66 -23 74 -24 12 -2 52 115
75 221 8 35 -8 44 -128 72 -100 24 -312 26 -396 4z"/>
<path d="M10290 2944 c-147 -39 -267 -136 -310 -251 -31 -83 -25 -226 12 -298
54 -102 152 -173 351 -252 155 -61 207 -105 207 -175 0 -55 -26 -93 -84 -119
-84 -38 -278 -19 -410 40 -27 11 -51 19 -53 17 -7 -6 -63 -228 -63 -247 0 -20
82 -52 188 -74 109 -22 309 -20 406 5 145 37 252 117 304 228 24 51 27 68 27
172 0 112 -1 117 -34 178 -54 99 -136 159 -320 232 -136 54 -170 72 -206 110
-59 62 -28 149 65 180 57 19 219 8 295 -19 33 -12 66 -23 74 -24 12 -2 52 115
75 221 8 35 -8 44 -128 72 -100 24 -312 26 -396 4z"/>
<path d="M11095 2941 c-44 -20 -110 -87 -125 -127 -17 -45 -12 -151 10 -193
58 -116 227 -167 359 -110 89 38 151 130 151 223 0 24 3 26 44 26 45 0 45 0
36 -27 -82 -242 -172 -550 -176 -598 -7 -81 15 -120 88 -158 47 -25 65 -28
140 -28 148 1 174 16 370 209 l167 164 -64 -198 c-36 -110 -75 -230 -88 -269
l-24 -70 -274 -5 c-257 -5 -277 -6 -314 -27 -52 -28 -100 -78 -120 -125 l-15
-38 437 0 c342 1 446 4 476 14 56 20 112 62 141 106 20 31 152 433 402 1233 5
16 -6 17 -139 17 -120 0 -153 -3 -190 -19 -38 -17 -79 -63 -332 -377 -159
-198 -286 -352 -283 -344 3 8 44 139 92 291 89 285 98 337 71 389 -30 59 -39
60 -437 60 -330 0 -367 -2 -403 -19z"/>
<path d="M3087 2602 c-37 -191 -77 -409 -90 -484 -12 -76 -24 -138 -27 -138
-3 0 -15 69 -28 153 -13 83 -51 298 -85 477 l-62 325 -169 0 -170 0 -77 -380
c-43 -209 -86 -426 -95 -482 -10 -57 -21 -103 -24 -103 -4 0 -12 37 -19 83
-15 99 -150 845 -157 870 -5 15 -22 17 -170 17 -124 0 -164 -3 -164 -12 0 -7
71 -311 157 -675 l157 -663 172 0 c156 0 173 2 178 18 13 44 157 718 171 802
9 52 19 102 22 110 3 8 14 -43 25 -115 10 -71 49 -283 86 -470 l67 -340 171
-3 171 -2 21 77 c62 231 322 1252 322 1266 0 15 -17 17 -157 17 l-158 0 -68
-348z"/>
<path d="M3630 2265 l0 -675 435 0 435 0 0 125 0 125 -280 0 -280 0 0 160 0
160 250 0 250 0 0 125 0 125 -250 0 -250 0 0 140 0 140 265 0 265 0 0 125 0
125 -420 0 -420 0 0 -675z"/>
<path d="M7082 2272 c-112 -367 -203 -670 -202 -675 0 -4 73 -6 162 -5 l161 3
47 170 47 170 188 0 188 0 51 -172 51 -173 168 0 c112 0 167 4 167 11 0 8
-337 1105 -401 1307 l-11 32 -206 0 -207 0 -203 -668z m506 31 l39 -133 -142
0 -143 0 34 118 c19 64 48 173 65 242 16 69 32 132 36 140 3 8 20 -41 38 -110
18 -69 51 -185 73 -257z"/>
<path d="M8340 2912 c0 -15 -18 -309 -40 -652 -22 -343 -40 -634 -40 -647 0
-23 0 -23 145 -23 109 0 145 3 145 13 0 6 9 194 20 417 11 223 20 442 20 488
0 89 14 109 25 36 9 -64 103 -434 178 -704 l62 -225 125 -3 126 -3 122 393
c67 216 137 449 156 518 l35 125 0 -180 c1 -196 18 -738 27 -822 l5 -53 150 0
149 0 0 48 c0 56 -57 1125 -66 1230 l-6 72 -203 0 -204 0 -71 -222 c-62 -191
-132 -436 -183 -638 l-14 -55 -12 60 c-24 117 -111 453 -169 650 l-59 200
-212 3 -211 2 0 -28z"/>
<path d="M12852 2272 c-112 -367 -203 -670 -202 -675 0 -4 73 -6 162 -5 l161
3 47 170 47 170 188 0 188 0 51 -172 51 -173 168 0 c112 0 167 4 167 11 0 8
-337 1105 -401 1307 l-11 32 -206 0 -207 0 -203 -668z m506 31 l39 -133 -142
0 -143 0 34 118 c19 64 48 173 65 242 16 69 32 132 36 140 3 8 20 -41 38 -110
18 -69 51 -185 73 -257z"/>
</g>
</svg>
